<?xml version="1.0" standalone="no"?><svg xmlns="http://www.w3.org/2000/svg" viewBox="0 0 1440 320"><path fill="#000000" fill-opacity="1" d="M0,192L6.9,176C13.7,160,27,128,41,128C54.9,128,69,160,82,176C96,192,110,192,123,202.7C137.1,213,151,235,165,245.3C178.3,256,192,256,206,256C219.4,256,233,256,247,213.3C260.6,171,274,85,288,85.3C301.7,85,315,171,329,197.3C342.9,224,357,192,370,149.3C384,107,398,53,411,53.3C425.1,53,439,107,453,154.7C466.3,203,480,245,494,224C507.4,203,521,117,535,90.7C548.6,64,562,96,576,122.7C589.7,149,603,171,617,149.3C630.9,128,645,64,658,80C672,96,686,192,699,218.7C713.1,245,727,203,741,165.3C754.3,128,768,96,782,74.7C795.4,53,809,43,823,58.7C836.6,75,850,117,864,154.7C877.7,192,891,224,905,202.7C918.9,181,933,107,946,74.7C960,43,974,53,987,58.7C1001.1,64,1015,64,1029,101.3C1042.3,139,1056,213,1070,229.3C1083.4,245,1097,203,1111,160C1124.6,117,1138,75,1152,80C1165.7,85,1179,139,1193,170.7C1206.9,203,1221,213,1234,234.7C1248,256,1262,288,1275,298.7C1289.1,309,1303,299,1317,298.7C1330.3,299,1344,309,1358,293.3C1371.4,277,1385,235,1399,197.3C1412.6,160,1426,128,1433,112L1440,96L1440,320L1433.1,320C1426.3,320,1413,320,1399,320C1385.1,320,1371,320,1358,320C1344,320,1330,320,1317,320C1302.9,320,1289,320,1275,320C1261.7,320,1248,320,1234,320C1220.6,320,1207,320,1193,320C1179.4,320,1166,320,1152,320C1138.3,320,1125,320,1111,320C1097.1,320,1083,320,1070,320C1056,320,1042,320,1029,320C1014.9,320,1001,320,987,320C973.7,320,960,320,946,320C932.6,320,919,320,905,320C891.4,320,878,320,864,320C850.3,320,837,320,823,320C809.1,320,795,320,782,320C768,320,754,320,741,320C726.9,320,713,320,699,320C685.7,320,672,320,658,320C644.6,320,631,320,617,320C603.4,320,590,320,576,320C562.3,320,549,320,535,320C521.1,320,507,320,494,320C480,320,466,320,453,320C438.9,320,425,320,411,320C397.7,320,384,320,370,320C356.6,320,343,320,329,320C315.4,320,302,320,288,320C274.3,320,261,320,247,320C233.1,320,219,320,206,320C192,320,178,320,165,320C150.9,320,137,320,123,320C109.7,320,96,320,82,320C68.6,320,55,320,41,320C27.4,320,14,320,7,320L0,320Z"></path></svg>